<svg version="1.1" height="12" xmlns="http://www.w3.org/2000/svg" xmlns:xlink="http://www.w3.org/1999/xlink" x="0px" y="0px" viewBox="0 0 12 12" style="enable-background:new 0 0 12 12;" xml:space="preserve">
<path class="fill" d="M6.6,0c-3,0-5.4,2.4-5.4,5.4c0,1.3,0.4,2.4,1.2,3.4L0.2,11c-0.2,0.2-0.2,0.6,0,0.8C0.3,11.9,0.4,12,0.6,12
	c0.2,0,0.3-0.1,0.4-0.2l2.2-2.2c0.9,0.7,2.1,1.2,3.4,1.2c3,0,5.4-2.4,5.4-5.4S9.6,0,6.6,0z M6.6,9.6c-1.2,0-2.2-0.5-3-1.2
	c0,0,0,0,0,0c0,0,0,0,0,0c-0.8-0.8-1.2-1.8-1.2-3c0-2.3,1.9-4.2,4.2-4.2c2.3,0,4.2,1.9,4.2,4.2C10.8,7.7,8.9,9.6,6.6,9.6z"/>
</svg>
